<svg xmlns="http://www.w3.org/2000/svg" viewBox="0 0 245.95 250"><g id="Layer_2" data-name="Layer 2"><g id="Layer_1-2" data-name="Layer 1"><path d="M225.75,199h-7.4a3.92,3.92,0,0,1-4.2-3.15L200.92,149q-.21-1.05-.84-1.05T199,149L187.9,195.64a3.68,3.68,0,0,1-1.36,2.41,4.35,4.35,0,0,1-2.84.95H155.14a3.92,3.92,0,0,1-4.2-3.15L121.12,94.63a4.65,4.65,0,0,1-.21-1.47q0-2.73,3.36-2.73h28.14a4.25,4.25,0,0,1,2.83.95,3.65,3.65,0,0,1,1.37,2.41l12.18,54.81q.21.84.84.84t.84-.84l13-54.6a3.67,3.67,0,0,1,1.37-2.42,4.3,4.3,0,0,1,2.83-.94h24.78a4,4,0,0,1,4.2,3.36l13.86,55c.28.56.59.84.94.84s.6-.28.74-.84l13.65-55.23,0-.24,0-.22A125,125,0,1,0,225.75,199Zm-116.49-3.78v.25a3.61,3.61,0,0,1-1,2.48,3.69,3.69,0,0,1-2.73,1.05H77.93a3.61,3.61,0,0,1-2.48-1,3.69,3.69,0,0,1-1-2.73V55.53a3.61,3.61,0,0,1,1-2.48,3.69,3.69,0,0,1,2.73-1h27.3a3.6,3.6,0,0,1,3.78,3.78Z"/></g></g></svg>